<?xml version="1.0" standalone="no"?>
<!DOCTYPE svg PUBLIC "-//W3C//DTD SVG 20010904//EN"
 "http://www.w3.org/TR/2001/REC-SVG-20010904/DTD/svg10.dtd">
<svg version="1.0" xmlns="http://www.w3.org/2000/svg"
 width="540.000000pt" height="540.000000pt" viewBox="0 0 540.000000 540.000000"
 preserveAspectRatio="xMidYMid meet">
<metadata>
Created by potrace 1.14, written by Peter Selinger 2001-2017
</metadata>
<g transform="translate(0.000000,540.000000) scale(0.100000,-0.100000)"
fill="#000000" stroke="none">
<path d="M2577 4310 c-212 -33 -391 -92 -575 -191 -51 -27 -96 -49 -100 -49
-4 0 -33 24 -64 54 -107 100 -273 166 -419 166 -229 0 -431 -122 -533 -322
-51 -101 -59 -135 -63 -276 -4 -105 -1 -133 17 -189 44 -136 135 -255 255
-333 49 -32 64 -47 59 -59 -93 -222 -117 -640 -53 -926 22 -101 92 -303 136
-395 224 -466 647 -814 1148 -944 175 -46 301 -59 490 -53 290 10 507 64 750
187 481 243 810 661 935 1186 33 139 43 263 37 453 -6 229 -33 362 -119 584
-126 327 -386 646 -691 844 -124 81 -329 172 -492 218 -210 60 -509 78 -718
45z"/>
</g>
</svg>
